<!DOCTYPE svg PUBLIC "-//W3C//DTD SVG 1.1//EN" "http://www.w3.org/Graphics/SVG/1.1/DTD/svg11.dtd">
<!-- Uploaded to: SVG Repo, www.svgrepo.com, Transformed by: SVG Repo Mixer Tools -->
<svg fill="#000000" height="800px" width="800px" version="1.1" id="Layer_1" xmlns="http://www.w3.org/2000/svg" xmlns:xlink="http://www.w3.org/1999/xlink" viewBox="0 0 255.024 255.024" xml:space="preserve">
<g id="SVGRepo_bgCarrier" stroke-width="0"/>
<g id="SVGRepo_tracerCarrier" stroke-linecap="round" stroke-linejoin="round"/>
<g id="SVGRepo_iconCarrier"> <g> <g> <g> <path d="M254.986,198.247l-7.7-132.392c-0.172-2.958-0.93-5.794-2.203-8.383c-2.389-5.663-7.335-9.927-13.366-11.354 c-2.459-0.752-5.041-1.092-7.655-0.935l-44.815,2.607c0.19-0.481,0.284-0.995,0.251-1.523c-0.056-0.96-0.484-1.844-1.208-2.488 c-0.72-0.644-1.612-0.976-2.612-0.912l-6.86,0.399l-0.34-5.847c-0.74-12.672-12.584-22.32-26.464-21.524l-48.972,2.848 C79.186,19.551,68.514,30.515,69.25,43.191l0.346,5.959l-5.526,0.321c-1.988,0.116-3.516,1.828-3.404,3.824 c0.03,0.492,0.16,0.953,0.364,1.371l-40.32,2.345c-5.844,0.34-11.212,2.948-15.128,7.344c-3.92,4.396-5.884,10.036-5.544,15.876 l7.7,132.392c0.175,3.009,0.96,5.838,2.212,8.387c2.314,5.429,7.001,9.554,12.696,11.14c1.99,0.676,4.098,1.071,6.283,1.145 c0.346,3.334,3.161,5.88,6.505,5.88c0.128,0,0.256-0.004,0.388-0.008l7.66-0.444c1.74-0.1,3.34-0.88,4.508-2.188 c1.073-1.21,1.649-2.733,1.652-4.327l166.727-9.698c0.394,3.279,3.187,5.768,6.497,5.768c0.124,0,0.252-0.004,0.384-0.008 l7.66-0.444c3.532-0.208,6.253-3.202,6.157-6.715c4.762-0.884,9.084-3.295,12.375-6.989 C253.362,209.727,255.326,204.087,254.986,198.247z M180.06,220.646l-6.673-114.751c1.698,0.738,3.527,1.136,5.411,1.136 c0.268,0,0.54-0.008,0.808-0.024l6.508-0.38c2.204-0.129,4.25-0.789,6.046-1.831l6.673,114.758L180.06,220.646z M30.726,229.335 c-9.904,0.552-18.456-7.024-19.036-16.94l-0.94-16.161l15.12-0.879c4.456-0.224,8.684,1.232,12.012,4.196 c3.332,2.964,5.308,7.028,5.564,11.444l1.023,17.54L30.726,229.335z M47.296,228.371l-1.022-17.54 c-0.296-5.172-2.608-9.928-6.504-13.396c-3.9-3.468-8.876-5.252-14.064-4.908l-15.12,0.879L5.024,97.778l17.546-1.019 c10.716-0.628,18.924-9.852,18.304-20.568l-0.952-16.325l16.055-0.934l1.006,17.289c-0.453,0.398-0.892,0.816-1.297,1.278 c-2.452,2.796-3.688,6.388-3.468,10.116l0.876,15.064c0.264,4.513,2.628,8.4,6.063,10.767l6.622,113.849L47.296,228.371z M19.03,61.727l18.1-1.052l0.916,15.68c0.532,9.16-6.488,17.04-15.64,17.576L4.859,94.95L3.99,80.003 c-0.276-4.78,1.336-9.4,4.544-13.008c1.538-1.728,3.355-3.107,5.35-4.117C15.51,62.231,17.238,61.831,19.03,61.727z M80.275,113.659l6.518,112.052l-18.772,1.092L61.505,114.75c1.671,0.724,3.5,1.132,5.413,1.132c0.264,0,0.532-0.004,0.8-0.02 l6.512-0.38C76.393,115.356,78.446,114.719,80.275,113.659z M82.05,109.311c-2.056,2.34-4.884,3.728-7.956,3.908l-6.512,0.38 c-6.308,0.408-11.852-4.584-12.228-11.048l-0.876-15.064c-0.184-3.128,0.848-6.144,2.908-8.488 c1.953-2.223,4.603-3.573,7.497-3.855l0.283,4.881c-3.505,0.447-6.123,3.574-5.916,7.194l0.88,15.064 c0.104,1.824,0.912,3.5,2.26,4.72c1.252,1.136,2.844,1.748,4.508,1.748c0.132,0,0.264-0.004,0.4-0.012l6.512-0.38 c1.808-0.104,3.468-0.92,4.672-2.292c1.204-1.368,1.804-3.128,1.7-4.952L79.31,86.039c-0.215-3.618-3.086-6.371-6.708-6.453 l-0.283-4.885c0.07-0.001,0.14-0.006,0.212-0.006c2.832,0,5.536,1.044,7.68,2.976c2.316,2.092,3.692,4.964,3.872,8.092 l0.876,15.064C85.142,103.955,84.11,106.967,82.05,109.311z M68.966,90.451c0.064,0,0.132,0,0.196-0.004l0.68-0.04 c0.904-0.052,1.732-0.456,2.332-1.132c0.6-0.68,0.904-1.544,0.848-2.444l-0.288-4.966c2.247,0.078,4.169,1.942,4.304,4.31 l0.876,15.064c0.072,1.224-0.332,2.408-1.136,3.324c-0.8,0.916-1.904,1.456-3.1,1.524l-6.512,0.38 c-1.18,0.084-2.356-0.336-3.252-1.152c-0.908-0.82-1.444-1.944-1.516-3.168l-0.88-15.064c-0.139-2.367,1.526-4.4,3.781-4.77 l0.287,4.954C65.698,89.059,67.194,90.451,68.966,90.451z M66.918,71.063c-0.02-0.296,0.08-0.584,0.28-0.808 c0.196-0.22,0.472-0.356,0.768-0.372l0.68-0.04c0.02,0,0.04,0,0.064,0c0.276,0,0.532,0.1,0.74,0.28 c0.224,0.2,0.356,0.472,0.372,0.768l0.932,16.068c0.02,0.296-0.08,0.58-0.276,0.804c-0.196,0.22-0.472,0.356-0.768,0.372 l-0.68,0.04c-0.596,0.076-1.14-0.432-1.18-1.048L66.918,71.063z M72.187,72.447l-0.097-1.68 c-0.048-0.904-0.452-1.732-1.128-2.332c-0.68-0.604-1.6-0.916-2.444-0.852l-0.676,0.04c-0.904,0.052-1.732,0.456-2.336,1.132 c-0.6,0.676-0.904,1.54-0.852,2.444l0.097,1.678c-1.993,0.183-3.887,0.79-5.585,1.773l-0.901-15.491l18.772-1.092l0.901,15.489 C76.144,72.777,74.197,72.396,72.187,72.447z M82.455,112.092c0.455-0.399,0.896-0.818,1.303-1.281 c2.452-2.796,3.688-6.388,3.468-10.116l-0.88-15.064c-0.216-3.728-1.856-7.152-4.62-9.644c-0.457-0.413-0.943-0.779-1.439-1.123 l-1.006-17.287l88.72-5.16l0.869,14.951c-3.132,2.751-5.027,6.882-4.768,11.391l0.88,15.064c0.216,3.728,1.856,7.152,4.62,9.644 c0.456,0.411,0.94,0.776,1.436,1.119l6.76,116.191l-88.714,5.162L82.455,112.092z M185.982,104.355l-6.508,0.38 c-3.056,0.188-6.044-0.872-8.356-2.956c-0.083-0.075-0.156-0.159-0.237-0.236c-0.007-0.015-0.015-0.029-0.023-0.044l0.001,0.023 c-2.154-2.068-3.44-4.829-3.613-7.835l-0.88-15.064c-0.367-6.305,4.268-11.736,10.402-12.341l0.284,4.872 c-3.502,0.45-6.117,3.575-5.906,7.193l0.876,15.064c0.216,3.644,3.216,6.464,6.776,6.464c0.128,0,0.256-0.004,0.392-0.008 l6.512-0.38c3.732-0.22,6.588-3.468,6.372-7.244l-0.876-15.064c-0.104-1.824-0.912-3.5-2.26-4.72 c-1.238-1.122-2.818-1.729-4.444-1.741l-0.283-4.88c0.068-0.001,0.136-0.006,0.203-0.006c2.836,0,5.54,1.044,7.684,2.976 c2.316,2.088,3.692,4.964,3.872,8.092l0.88,15.064C197.226,98.427,192.35,103.987,185.982,104.355z M182.646,78.099 c0.032,0.616-0.436,1.144-1.052,1.18l-0.68,0.04c-0.3,0.016-0.576-0.08-0.804-0.28c-0.224-0.2-0.356-0.472-0.372-0.768 l-0.936-16.068c-0.032-0.616,0.44-1.144,1.052-1.18l0.68-0.04c0.024,0,0.044,0,0.068,0c0.584,0,1.076,0.46,1.112,1.048 L182.646,78.099z M180.846,81.591c0.068,0,0.14,0,0.204-0.008l0.68-0.04c1.86-0.108,3.288-1.712,3.184-3.576l-0.288-4.958 c1.037,0.044,2.011,0.428,2.788,1.134c0.908,0.82,1.444,1.944,1.516,3.168l0.876,15.064c0.148,2.528-1.752,4.7-4.24,4.844 l-6.512,0.38c-2.408,0.176-4.624-1.792-4.768-4.324l-0.876-15.064c-0.139-2.366,1.526-4.398,3.775-4.769l0.289,4.957 c0.048,0.904,0.452,1.728,1.128,2.332C179.23,81.287,180.022,81.591,180.846,81.591z M184.08,63.583l-0.098-1.688 c-0.116-1.86-1.768-3.268-3.58-3.18l-0.68,0.04c-1.86,0.108-3.288,1.712-3.184,3.576l0.098,1.687 c-2.027,0.187-3.915,0.812-5.583,1.78l-0.767-13.155l18.776-1.092l0.767,13.151C188.024,63.919,186.069,63.536,184.08,63.583z M194.342,103.227c3.134-2.751,5.031-6.882,4.772-11.393l-0.88-15.064c-0.216-3.728-1.856-7.152-4.616-9.644 c-0.457-0.413-0.944-0.779-1.442-1.122l-0.871-14.944l16.419-0.955l1.022,17.533c0.296,5.172,2.608,9.928,6.504,13.396 c3.608,3.212,8.156,4.944,12.916,4.944c0.376,0,0.76-0.012,1.148-0.036l15.112-0.878l5.562,95.628l-17.538,1.022 c-10.72,0.628-18.928,9.852-18.308,20.568l0.952,16.325l-13.993,0.814L194.342,103.227z M224.282,49.143 c0.356-0.02,0.708-0.032,1.06-0.032c4.404,0,8.616,1.604,11.956,4.576c3.608,3.208,5.748,7.612,6.024,12.392l0.94,16.157 l-15.116,0.879c-4.436,0.236-8.684-1.232-12.012-4.2c-3.332-2.96-5.308-7.024-5.564-11.44l-1.023-17.533L224.282,49.143z M241.1,215.611c-1.616,0.637-3.332,1.032-5.11,1.135l-18.1,1.052l-0.916-15.68c-0.532-9.16,6.488-17.04,15.644-17.576 l17.535-1.019l0.869,14.947c0.276,4.78-1.336,9.4-4.544,13.008C244.932,213.215,243.106,214.6,241.1,215.611z M175.806,45.135 c0.028-0.004,0.056-0.004,0.08-0.004c0.328,0,0.644,0.12,0.892,0.344c0.268,0.24,0.428,0.568,0.448,0.928 c0.024,0.356-0.096,0.7-0.336,0.968c-0.24,0.272-0.568,0.432-0.928,0.452l-23.336,1.356c-0.64,0.052-1.376-0.52-1.42-1.264 c-0.044-0.744,0.524-1.38,1.268-1.424L175.806,45.135z M71.514,43.059c-0.664-11.428,9.056-21.32,21.66-22.052l48.972-2.848 c0.496-0.028,0.992-0.044,1.48-0.044c11.956,0,21.944,8.46,22.584,19.436l0.34,5.846l-6.147,0.357l-0.341-5.848 c-0.496-8.444-8.32-14.868-17.6-14.352L93.49,26.403c-4.436,0.26-8.528,2.084-11.516,5.14c-3.016,3.084-4.544,7.048-4.304,11.156 l0.346,5.961l-6.155,0.358L71.514,43.059z M63.27,52.183c0.24-0.268,0.568-0.428,0.928-0.448l23.332-1.356 c0.028-0.004,0.056-0.004,0.08-0.004c0.712,0,1.304,0.56,1.344,1.268c0.02,0.356-0.1,0.704-0.34,0.972 c-0.24,0.272-0.568,0.432-0.928,0.452l-23.332,1.356c-0.848,0.028-1.38-0.528-1.424-1.264 C62.91,52.799,63.03,52.455,63.27,52.183z M87.402,48.115l-7.122,0.414l-0.346-5.962c-0.204-3.46,1.096-6.812,3.66-9.436 c2.592-2.652,6.152-4.236,10.028-4.46l48.972-2.848c7.956-0.496,14.78,5.02,15.204,12.22l0.34,5.843l-5.792,0.337 c-1.988,0.116-3.516,1.832-3.404,3.82c0.03,0.539,0.188,1.037,0.426,1.485l-58.34,3.393c0.157-0.445,0.226-0.921,0.198-1.406 C91.106,49.527,89.378,48.027,87.402,48.115z M46.29,235.027c-0.764,0.856-1.808,1.368-2.944,1.432l-7.66,0.444 c-2.177,0.173-4.12-1.465-4.459-3.623l16.127-0.938C47.32,233.33,46.962,234.273,46.29,235.027z M230.774,225.559l-7.66,0.444 c-2.173,0.132-4.127-1.471-4.46-3.625l15.66-0.911c0.158-0.009,0.311-0.038,0.468-0.05 C234.712,223.604,233,225.43,230.774,225.559z"/> <path d="M20.706,83.699c0.12,0,0.232-0.004,0.348-0.008c1.568-0.092,3.004-0.788,4.048-1.96s1.564-2.68,1.476-4.248 c-0.192-3.236-3.028-5.7-6.208-5.52c-3.232,0.188-5.708,2.972-5.52,6.204C15.034,81.283,17.626,83.699,20.706,83.699z M18.018,75.427c0.64-0.716,1.524-1.144,2.484-1.2c0.072-0.008,0.14-0.008,0.212-0.008c1.896,0,3.488,1.484,3.596,3.396 c0.056,0.96-0.268,1.884-0.908,2.604c-0.64,0.72-1.524,1.144-2.484,1.2c-0.94,0.092-1.884-0.264-2.604-0.904 c-0.72-0.64-1.144-1.52-1.2-2.484C17.058,77.071,17.382,76.147,18.018,75.427z"/> <path d="M223.77,70.175c1.084,0.968,2.456,1.488,3.892,1.488c0.116,0,0.232-0.004,0.352-0.012 c3.236-0.188,5.712-2.972,5.524-6.204c-0.192-3.236-2.996-5.66-6.208-5.52c-3.232,0.188-5.708,2.972-5.52,6.204 C221.902,67.695,222.598,69.131,223.77,70.175z M227.458,62.191c0.072-0.008,0.144-0.008,0.216-0.008 c0.884,0,1.728,0.32,2.388,0.916c0.724,0.64,1.148,1.524,1.204,2.484c0.056,0.96-0.268,1.888-0.908,2.604s-1.524,1.144-2.484,1.2 c-0.936,0.084-1.88-0.264-2.6-0.904c-0.724-0.64-1.148-1.524-1.204-2.484C223.954,64.015,225.474,62.307,227.458,62.191z"/> <path d="M27.606,206.787c-3.232,0.188-5.708,2.972-5.52,6.204c0.184,3.116,2.776,5.532,5.86,5.532 c0.112,0,0.224-0.004,0.344-0.012c3.236-0.188,5.712-2.972,5.524-6.204C33.622,209.075,30.802,206.631,27.606,206.787z M30.638,215.047c-0.64,0.716-1.524,1.144-2.484,1.2c-1.96,0.204-3.692-1.4-3.804-3.388c-0.116-1.984,1.404-3.692,3.388-3.808 c0.072-0.008,0.144-0.008,0.216-0.008c0.884,0,1.724,0.32,2.388,0.916c0.724,0.64,1.148,1.524,1.204,2.484 C31.602,213.403,31.278,214.331,30.638,215.047z"/> <path d="M234.566,194.743c-1.568,0.092-3.004,0.788-4.048,1.96s-1.564,2.68-1.476,4.248c0.184,3.116,2.78,5.532,5.864,5.532 c0.112,0,0.232-0.004,0.344-0.016c3.232-0.188,5.708-2.972,5.52-6.204C240.578,197.027,237.738,194.579,234.566,194.743z M235.114,204.207c-2.104,0.16-3.696-1.404-3.808-3.388c-0.056-0.96,0.268-1.884,0.908-2.604c0.64-0.72,1.524-1.144,2.484-1.2 c0.072-0.008,0.144-0.008,0.216-0.008c0.884,0,1.728,0.32,2.388,0.908c0.72,0.64,1.144,1.52,1.2,2.484 C238.618,202.383,237.098,204.091,235.114,204.207z"/> <polygon points="13.682,147.299 11.462,147.383 11.91,155.955 14.13,155.871 "/> <polygon points="12.138,117.915 9.918,117.999 10.37,126.571 12.59,126.487 "/> <polygon points="12.914,132.607 10.694,132.691 11.142,141.263 13.362,141.179 "/> <polygon points="13.002,176.771 13.45,185.343 15.67,185.259 15.222,176.687 "/> <polygon points="11.37,103.219 9.15,103.303 9.598,111.875 11.818,111.791 "/> <polygon points="14.45,161.995 12.23,162.079 12.682,170.651 14.902,170.567 "/> <polygon points="242.21,144.211 244.43,144.127 243.982,135.555 241.762,135.639 "/> <polygon points="242.982,158.903 245.202,158.819 244.75,150.247 242.53,150.331 "/> <polygon points="241.442,129.515 243.662,129.431 243.214,120.859 240.994,120.943 "/> <polygon points="242.122,100.047 241.674,91.475 239.454,91.559 239.902,100.131 "/> <polygon points="240.67,114.823 242.89,114.739 242.438,106.167 240.218,106.251 "/> <polygon points="243.75,173.595 245.97,173.511 245.526,164.939 243.306,165.023 "/> <path d="M162.522,152.799c-1.272-1.128-2.92-1.692-4.576-1.596l-48.188,2.804c-1.684,0.1-3.232,0.848-4.36,2.116 c-1.124,1.268-1.688,2.892-1.592,4.572c0.096,1.684,0.848,3.232,2.116,4.36c1.172,1.044,2.652,1.608,4.2,1.608 c0.124,0,0.248-0.004,0.376-0.012l48.188-2.804c1.684-0.1,3.232-0.848,4.36-2.116c1.124-1.268,1.688-2.892,1.592-4.572 C164.542,155.475,163.79,153.927,162.522,152.799z M158.078,153.467c0.08-0.008,0.16-0.008,0.24-0.008 c0.19,0,0.376,0.025,0.562,0.052l-3.705,8.265l-6.637,0.386l3.743-8.357L158.078,153.467z M132.85,163.074l3.743-8.357 l6.939-0.404l-3.743,8.357L132.85,163.074z M125.21,163.519l3.632-8.108c0.037-0.08,0.049-0.163,0.047-0.246l6.43-0.374 l-3.743,8.357L125.21,163.519z M116.996,163.997l3.743-8.357l6.939-0.404l-3.743,8.357L116.996,163.997z M144.808,154.239 l6.198-0.361l-3.684,8.224c-0.02,0.043-0.022,0.087-0.03,0.131l-6.227,0.362L144.808,154.239z M106.07,160.563 c-0.06-1.076,0.3-2.116,1.024-2.932s1.716-1.296,2.796-1.36l2.563-0.149l-3.61,8.055c-0.514-0.172-0.994-0.444-1.413-0.818 C106.614,162.635,106.134,161.643,106.07,160.563z M110.362,164.383c-0.123,0.007-0.241-0.011-0.362-0.015l3.729-8.32 l5.737-0.334l-3.743,8.357L110.362,164.383z M161.346,160.219c-0.724,0.816-1.716,1.296-2.796,1.36l-2.1,0.122l3.527-7.867 c0.369,0.168,0.721,0.38,1.033,0.657c0.816,0.724,1.296,1.716,1.36,2.796C162.43,158.363,162.07,159.403,161.346,160.219z"/> <path d="M215.606,162.559l13.328-0.776c3-0.176,5.296-2.76,5.124-5.76l-2.364-40.636c-0.176-2.996-2.676-5.28-5.76-5.124 l-13.324,0.776c-1.448,0.084-2.78,0.736-3.752,1.824c-0.968,1.092-1.456,2.488-1.372,3.936l2.364,40.636 c0.168,2.896,2.572,5.136,5.44,5.136C215.39,162.571,215.502,162.571,215.606,162.559z M212.114,157.307l-2.364-40.64 c-0.052-0.844,0.232-1.66,0.8-2.296c0.568-0.64,1.344-1.016,2.192-1.064l13.324-0.776c0.064-0.004,0.124-0.004,0.188-0.004 c1.672,0,3.08,1.308,3.176,2.996l2.364,40.636c0.1,1.752-1.24,3.264-2.992,3.364l-13.328,0.776 C213.702,160.403,212.214,159.059,212.114,157.307z"/> <path d="M41.05,145.419l-15.476,17.388l17.392,15.476l15.472-17.388L41.05,145.419z M42.778,175.079l-14-12.46l12.46-13.996 l13.996,12.456L42.778,175.079z"/> <path d="M132.15,194.851c-0.268-4.524-4.088-7.968-8.684-7.728l-9.284,0.54c-2.184,0.128-4.192,1.104-5.656,2.748 c-1.464,1.64-2.196,3.748-2.072,5.932l0.54,9.288c0.256,4.36,3.888,7.74,8.204,7.74c0.16,0,0.32-0.004,0.48-0.012l9.284-0.54 c2.184-0.132,4.192-1.104,5.656-2.748c1.464-1.64,2.196-3.748,2.072-5.932L132.15,194.851z M128.926,208.559 c-1.056,1.192-2.512,1.896-4.092,1.988l-9.284,0.54c-3.2,0.256-6.092-2.316-6.284-5.592l-0.54-9.288 c-0.092-1.576,0.44-3.104,1.5-4.292c1.056-1.192,2.512-1.9,4.092-1.988l9.284-0.54c0.116-0.008,0.236-0.012,0.348-0.012 c3.124,0,5.752,2.448,5.936,5.604l0.54,9.288C130.518,205.843,129.986,207.371,128.926,208.559z"/> <path d="M116.126,121.999c3.476,2.108,7.38,3.192,11.344,3.192c1.752,0,3.52-0.216,5.264-0.64 c5.696-1.396,10.508-4.928,13.548-9.944c3.044-5.016,3.948-10.912,2.552-16.608s-4.924-10.508-9.94-13.548 c-5.016-3.04-10.916-3.948-16.608-2.548c-5.696,1.396-10.508,4.924-13.548,9.94c-3.044,5.016-3.948,10.912-2.552,16.608 C107.582,114.147,111.11,118.959,116.126,121.999z M110.67,93.019c2.728-4.5,7.044-7.664,12.148-8.916 c1.568-0.388,3.152-0.576,4.724-0.576c3.556,0,7.056,0.972,10.172,2.864c4.5,2.728,7.668,7.04,8.916,12.148 c1.256,5.108,0.444,10.396-2.284,14.896c-2.728,4.5-7.044,7.664-12.148,8.916c-5.108,1.248-10.396,0.44-14.896-2.288 c-4.5-2.728-7.668-7.04-8.916-12.148C107.13,102.807,107.942,97.519,110.67,93.019z"/> <path d="M119.474,105.195c0.524,2.144,1.856,3.956,3.748,5.104c1.308,0.792,2.776,1.2,4.272,1.2c0.66,0,1.324-0.08,1.984-0.24 c4.432-1.088,7.152-5.576,6.068-10.004c-0.524-2.144-1.856-3.956-3.748-5.104c-1.88-1.144-4.096-1.492-6.256-0.96 C121.11,96.275,118.39,100.763,119.474,105.195z M125.942,96.839c0.524-0.128,1.048-0.188,1.568-0.188 c2.956,0,5.648,2.012,6.38,5.004c0.86,3.52-1.304,7.088-4.824,7.948c-3.496,0.86-7.08-1.296-7.948-4.816 C120.258,101.267,122.422,97.699,125.942,96.839z"/> <path d="M124.378,94.023c0.092,0.388,0.44,0.648,0.824,0.648c0.068,0,0.136-0.008,0.204-0.024 c0.456-0.112,0.732-0.572,0.62-1.028l-0.64-2.612c-0.112-0.456-0.552-0.736-1.028-0.624c-0.456,0.112-0.732,0.572-0.62,1.028 L124.378,94.023z"/> <path d="M130.638,112.423c-0.112-0.456-0.556-0.732-1.028-0.624c-0.456,0.112-0.732,0.572-0.62,1.028l0.64,2.612 c0.092,0.388,0.44,0.648,0.824,0.648c0.064,0,0.132-0.008,0.204-0.024c0.456-0.112,0.732-0.572,0.62-1.028L130.638,112.423z"/> <path d="M136.91,101.771c0.068,0,0.132-0.012,0.204-0.024l2.612-0.64c0.456-0.112,0.732-0.572,0.62-1.028 c-0.112-0.456-0.556-0.728-1.028-0.624l-2.612,0.64c-0.456,0.112-0.732,0.572-0.62,1.028 C136.178,101.511,136.526,101.771,136.91,101.771z"/> <path d="M115.498,107.019c0.064,0,0.132-0.008,0.204-0.024l2.608-0.64c0.456-0.112,0.732-0.572,0.62-1.028 s-0.556-0.732-1.028-0.624l-2.608,0.64c-0.456,0.112-0.732,0.572-0.62,1.028C114.766,106.759,115.114,107.019,115.498,107.019z"/> <path d="M135.062,107.795c-0.244,0.404-0.12,0.924,0.284,1.168l2.3,1.396c0.136,0.084,0.288,0.124,0.44,0.124 c0.284,0,0.568-0.144,0.728-0.408c0.244-0.404,0.12-0.924-0.284-1.168l-2.3-1.396 C135.838,107.267,135.31,107.391,135.062,107.795z"/> <path d="M116.49,97.535l2.3,1.396c0.136,0.084,0.288,0.124,0.44,0.124c0.284,0,0.568-0.144,0.728-0.408 c0.244-0.404,0.12-0.924-0.284-1.168l-2.3-1.396c-0.396-0.24-0.92-0.124-1.168,0.284 C115.962,96.771,116.086,97.291,116.49,97.535z"/> <path d="M122.934,110.775c-0.396-0.24-0.92-0.124-1.168,0.284l-1.396,2.3c-0.244,0.404-0.12,0.924,0.284,1.168 c0.136,0.084,0.288,0.124,0.44,0.124c0.284,0,0.568-0.144,0.728-0.408l1.396-2.3 C123.462,111.539,123.338,111.019,122.934,110.775z"/> <path d="M132.086,95.671c0.136,0.084,0.288,0.124,0.44,0.124c0.288,0,0.568-0.144,0.728-0.408l1.396-2.3 c0.244-0.404,0.12-0.924-0.284-1.168c-0.392-0.244-0.92-0.12-1.168,0.284l-1.396,2.3 C131.558,94.907,131.682,95.427,132.086,95.671z"/> </g> </g> </g> </g>
</svg>